# xmcd CD database file
#
# Track frame offsets:
#	150
#	68380
#	114081
#	158791
#	206011
#
# Disc length: 3156 seconds
#
# Revision: 0
# Processed by: cddbd v1.5.2PL0 Copyright (c) Steve Scherf et al.
# Submitted via: CDex 1.51
#
DISCID=340c5205
DTITLE=Wallace Roney - Wallace Roney at the Kennedy Center Jazz Club
DYEAR=2007
DGENRE=Jazz
TTITLE0=Wallace Roney - Let's Stay Together
TTITLE1=Wallace Roney - Metropolis
TTITLE2=Wallace Roney - Christina
TTITLE3=Wallace Roney - Poetic
TTITLE4=Wallace Roney - Stand
EXTD=YEAR: 2007
EXTT0=
EXTT1=
EXTT2=
EXTT3=
EXTT4=
PLAYORDER=
